<?xml version="1.0" encoding="UTF-8"?>
<svg xmlns="http://www.w3.org/2000/svg" xmlns:xlink="http://www.w3.org/1999/xlink" version="1.1" id="Capa_1" x="0px" y="0px" viewBox="0 0 511 511" style="enable-background:new 0 0 511 511;" xml:space="preserve" width="512" height="512">
<g>
	<path style="fill:none;stroke-linecap:round;stroke-linejoin:round;stroke-miterlimit:10;" d="&#10;&#9;&#9;M460.982,389.913c-23.145,35.444-55.769,65.362-96.444,85.516C243.075,535.612,95.821,485.935,35.637,364.472&#10;&#9;&#9;S25.13,95.755,146.594,35.571s268.717-10.507,328.901,110.956c25.597,51.661,31.146,108.506,19.926,160.814"/>
	
		<line style="fill:none;stroke-linecap:round;stroke-linejoin:round;stroke-miterlimit:10;" x1="482.158" y1="350.15" x2="482.158" y2="350.15"/>
	<path style="fill:none;stroke-linecap:round;stroke-linejoin:round;stroke-miterlimit:10;" d="&#10;&#9;&#9;M287.708,345.361v-75.153c0-35.576-28.84-64.417-64.417-64.417h0h-21.472c-17.788,0-32.208,14.42-32.208,32.208v0&#10;&#9;&#9;c0,17.788,14.42,32.208,32.208,32.208h10.736c5.929,0,10.736,4.807,10.736,10.736v75.153c0,35.576,28.84,64.417,64.417,64.417h0&#10;&#9;&#9;h21.472c17.788,0,32.208-14.42,32.208-32.208v0c0-17.788-14.42-32.208-32.208-32.208h-10.736&#10;&#9;&#9;C292.515,356.097,287.708,351.29,287.708,345.361z"/>
	
		<circle style="fill:none;stroke-linecap:round;stroke-linejoin:round;stroke-miterlimit:10;" cx="250.123" cy="125.047" r="34.56"/>
</g>















</svg>
