<?xml version="1.0" encoding="UTF-8" standalone="no"?>
<!-- Created with Inkscape (http://www.inkscape.org/) -->

<svg
   version="1.1"
   id="svg2112"
   xml:space="preserve"
   width="682.66669"
   height="682.66669"
   viewBox="0 0 682.66669 682.66669"
   xmlns="http://www.w3.org/2000/svg"
   xmlns:svg="http://www.w3.org/2000/svg"><defs
     id="defs2116"><clipPath
       clipPathUnits="userSpaceOnUse"
       id="clipPath2126"><path
         d="M 0,512 H 512 V 0 H 0 Z"
         id="path2124" /></clipPath><clipPath
       clipPathUnits="userSpaceOnUse"
       id="clipPath2146"><path
         d="M 0,512 H 512 V 0 H 0 Z"
         id="path2144" /></clipPath></defs><g
     id="g2118"
     transform="matrix(1.3333333,0,0,-1.3333333,0,682.66667)"><g
       id="g2120"><g
         id="g2122"
         clip-path="url(#clipPath2126)"><g
           id="g2128"
           transform="translate(210.9997,64)"><path
             d="M 0,0 H -201 V 384 H 291 V 0 H 90.001"
             style="fill:none;stroke-linecap:round;stroke-linejoin:round;stroke-miterlimit:10;stroke-dasharray:none;stroke-opacity:1"
             id="path2130" /></g><g
           id="g2132"
           transform="translate(10,394)"><path
             d="M 0,0 H 492"
             style="fill:none;stroke-linecap:round;stroke-linejoin:round;stroke-miterlimit:10;stroke-dasharray:none;stroke-opacity:1"
             id="path2134" /></g></g></g><g
       id="g2136"
       transform="translate(423,394)"><path
         d="M 0,0 V 54"
         style="fill:none;stroke-linecap:round;stroke-linejoin:round;stroke-miterlimit:10;stroke-dasharray:none;stroke-opacity:1"
         id="path2138" /></g><g
       id="g2140"><g
         id="g2142"
         clip-path="url(#clipPath2146)"><g
           id="g2148"
           transform="translate(98.4901,229)"><path
             d="M 0,0 H -27.778 V -44 H 0 c 12.15,0 22,9.85 22,22 v 0 C 22,-9.85 12.15,0 0,0 Z"
             style="fill:none;stroke-linecap:round;stroke-linejoin:round;stroke-miterlimit:10;stroke-dasharray:none;stroke-opacity:1"
             id="path2150" /></g><g
           id="g2152"
           transform="translate(89.0457,229)"><path
             d="M 0,0 H -18.333 V 44 H 0 c 12.15,0 22,-9.85 22,-22 v 0 C 22,9.85 12.15,0 0,0 Z"
             style="fill:none;stroke-linecap:round;stroke-linejoin:round;stroke-miterlimit:10;stroke-dasharray:none;stroke-opacity:1"
             id="path2154" /></g><g
           id="g2156"
           transform="translate(160.49,273)"><path
             d="m 0,0 v -87.926 c 0.973,-0.167 30.815,0 30.815,0"
             style="fill:none;stroke-linecap:round;stroke-linejoin:round;stroke-miterlimit:10;stroke-dasharray:none;stroke-opacity:1"
             id="path2158" /></g><g
           id="g2160"
           transform="translate(427.9055,265.4855)"><path
             d="m 0,0 c -7.022,4.744 -15.488,7.514 -24.601,7.514 -24.3,0 -44,-19.699 -44,-44 0,-24.3 19.7,-44 44,-44 24.301,0 37.983,19.7 37.983,44 h -26.325"
             style="fill:none;stroke-linecap:round;stroke-linejoin:round;stroke-miterlimit:10;stroke-dasharray:none;stroke-opacity:1"
             id="path2162" /></g><g
           id="g2164"
           transform="translate(319.3048,229)"><path
             d="m 0,0 c 0,-24.301 -19.699,-44 -44,-44 -24.301,0 -44,19.699 -44,44 0,24.301 19.699,44 44,44 C -19.699,44 0,24.301 0,0 Z"
             style="fill:none;stroke-linecap:round;stroke-linejoin:round;stroke-miterlimit:10;stroke-dasharray:none;stroke-opacity:1"
             id="path2166" /></g><g
           id="g2168"
           transform="translate(256,64)"><path
             d="M 0,0 V 0"
             style="fill:none;stroke-linecap:round;stroke-linejoin:round;stroke-miterlimit:10;stroke-dasharray:none;stroke-opacity:1"
             id="path2170" /></g></g></g></g></svg>
