<?xml version="1.0" encoding="UTF-8" standalone="no"?>
<!-- Created with Inkscape (http://www.inkscape.org/) -->

<svg
   version="1.1"
   id="svg2049"
   xml:space="preserve"
   width="682.66669"
   height="682.66669"
   viewBox="0 0 682.66669 682.66669"
   xmlns="http://www.w3.org/2000/svg"
   xmlns:svg="http://www.w3.org/2000/svg"><defs
     id="defs2053"><clipPath
       clipPathUnits="userSpaceOnUse"
       id="clipPath2063"><path
         d="M 0,512 H 512 V 0 H 0 Z"
         id="path2061" /></clipPath></defs><g
     id="g2055"
     transform="matrix(1.3333333,0,0,-1.3333333,0,682.66667)"><g
       id="g2057"><g
         id="g2059"
         clip-path="url(#clipPath2063)"><g
           id="g2065"
           transform="translate(376,437)"><path
             d="M 0,0 H 90 V -422 H -180"
             style="fill:none;stroke:#000000;stroke-linecap:butt;stroke-linejoin:miter;stroke-miterlimit:10;stroke-dasharray:none;stroke-opacity:1"
             id="path2067" /></g><g
           id="g2069"
           transform="translate(346,437)"><path
             d="M 0,0 V 15 C 0,39.853 -20.147,60 -45,60 -69.853,60 -90,39.853 -90,15 V 0 h -60 V -60 H 60 V 0 Z"
             style="fill:none;stroke:#000000;stroke-linecap:butt;stroke-linejoin:miter;stroke-miterlimit:10;stroke-dasharray:none;stroke-opacity:1"
             id="path2071" /></g><g
           id="g2073"
           transform="translate(136,94.375)"><path
             d="M 0,0 V 342.625 H 90"
             style="fill:none;stroke:#000000;stroke-linecap:butt;stroke-linejoin:miter;stroke-miterlimit:10;stroke-dasharray:none;stroke-opacity:1"
             id="path2075" /></g><g
           id="g2077"
           transform="translate(181,285)"><path
             d="M 0,0 H 30"
             style="fill:none;stroke:#000000;stroke-linecap:butt;stroke-linejoin:miter;stroke-miterlimit:10;stroke-dasharray:none;stroke-opacity:1"
             id="path2079" /></g><g
           id="g2081"
           transform="translate(241,285)"><path
             d="M 0,0 H 180"
             style="fill:none;stroke:#000000;stroke-linecap:butt;stroke-linejoin:miter;stroke-miterlimit:10;stroke-dasharray:none;stroke-opacity:1"
             id="path2083" /></g><g
           id="g2085"
           transform="translate(181,225)"><path
             d="M 0,0 H 30"
             style="fill:none;stroke:#000000;stroke-linecap:butt;stroke-linejoin:miter;stroke-miterlimit:10;stroke-dasharray:none;stroke-opacity:1"
             id="path2087" /></g><g
           id="g2089"
           transform="translate(241,225)"><path
             d="M 0,0 H 180"
             style="fill:none;stroke:#000000;stroke-linecap:butt;stroke-linejoin:miter;stroke-miterlimit:10;stroke-dasharray:none;stroke-opacity:1"
             id="path2091" /></g><g
           id="g2093"
           transform="translate(181,165)"><path
             d="M 0,0 H 30"
             style="fill:none;stroke:#000000;stroke-linecap:butt;stroke-linejoin:miter;stroke-miterlimit:10;stroke-dasharray:none;stroke-opacity:1"
             id="path2095" /></g><g
           id="g2097"
           transform="translate(241,165)"><path
             d="M 0,0 H 180"
             style="fill:none;stroke:#000000;stroke-linecap:butt;stroke-linejoin:miter;stroke-miterlimit:10;stroke-dasharray:none;stroke-opacity:1"
             id="path2099" /></g><g
           id="g2101"
           transform="translate(166,15)"><path
             d="M 0,0 C -66.274,0 -120,53.726 -120,120 -53.726,120 0,66.274 0,0 Z"
             style="fill:none;stroke:#000000;stroke-linecap:butt;stroke-linejoin:miter;stroke-miterlimit:10;stroke-dasharray:none;stroke-opacity:1"
             id="path2103" /></g><g
           id="g2105"
           transform="translate(286,105)"><path
             d="m 0,0 h -30 c -49.706,0 -90,-40.294 -90,-90 h 30 c 49.706,0 90,40.294 90,90 z"
             style="fill:none;stroke:#000000;stroke-linecap:butt;stroke-linejoin:miter;stroke-miterlimit:10;stroke-dasharray:none;stroke-opacity:1"
             id="path2107" /></g></g></g></g></svg>
