<?xml version="1.0" encoding="UTF-8" standalone="no"?>
<!-- Created with Inkscape (http://www.inkscape.org/) -->

<svg
   version="1.1"
   id="svg3474"
   xml:space="preserve"
   width="682.66669"
   height="682.66669"
   viewBox="0 0 682.66669 682.66669"
   xmlns="http://www.w3.org/2000/svg"
   xmlns:svg="http://www.w3.org/2000/svg"><defs
     id="defs3478"><clipPath
       clipPathUnits="userSpaceOnUse"
       id="clipPath3488"><path
         d="M 0,512 H 512 V 0 H 0 Z"
         id="path3486" /></clipPath></defs><g
     id="g3480"
     transform="matrix(1.3333333,0,0,-1.3333333,0,682.66667)"><g
       id="g3482"><g
         id="g3484"
         clip-path="url(#clipPath3488)"><g
           id="g3490"
           transform="translate(353.3333,186.742)"><path
             d="m 0,0 v 77.467 c 38.635,2.903 69.031,35.346 68.663,74.809 -0.373,40.087 -33.299,73.112 -73.385,73.599 -15.121,0.184 -29.219,-4.15 -41.029,-11.736 -3.658,30.403 -22.101,56.256 -47.93,70.157 m -87.305,0 c -25.829,-13.901 -44.272,-39.754 -47.93,-70.157 -11.81,7.586 -25.908,11.92 -41.029,11.736 -40.085,-0.487 -73.012,-33.512 -73.385,-73.599 -0.368,-39.463 30.028,-71.906 68.663,-74.809 V -156.742 H -8.075"
             style="fill:none;stroke-linecap:round;stroke-linejoin:round;stroke-miterlimit:10;stroke-dasharray:none;stroke-opacity:1"
             id="path3492" /></g><g
           id="g3494"
           transform="translate(111.1678,268.9995)"><path
             d="M 0,0 C -10.401,-4.024 -21.526,-5.62 -32.501,-4.789"
             style="fill:none;stroke-linecap:round;stroke-linejoin:round;stroke-miterlimit:10;stroke-dasharray:none;stroke-opacity:1"
             id="path3496" /></g><g
           id="g3498"
           transform="translate(321.5172,268.7384)"><path
             d="M 0,0 C 10.204,-3.831 21.081,-5.341 31.816,-4.528"
             style="fill:none;stroke-linecap:round;stroke-linejoin:round;stroke-miterlimit:10;stroke-dasharray:none;stroke-opacity:1"
             id="path3500" /></g><g
           id="g3502"
           transform="translate(207,112.4)"><path
             d="M 0,0 H -128.333"
             style="fill:none;stroke-linecap:round;stroke-linejoin:round;stroke-miterlimit:10;stroke-dasharray:none;stroke-opacity:1"
             id="path3504" /></g><g
           id="g3506"
           transform="translate(340.3049,186.7422)"><path
             d="m 0,0 -105.999,89.938 c -12.488,10.597 -31.017,9.838 -42.598,-1.742 v 0 c -11.581,-11.581 -12.339,-30.11 -1.743,-42.598 L -111.651,0"
             style="fill:none;stroke-linecap:round;stroke-linejoin:round;stroke-miterlimit:10;stroke-dasharray:none;stroke-opacity:1"
             id="path3508" /></g><g
           id="g3510"
           transform="translate(502,186.7422)"><path
             d="m 0,0 c 0,-86.566 -70.176,-156.742 -156.742,-156.742 -86.566,0 -156.742,70.176 -156.742,156.742 z"
             style="fill:none;stroke-linecap:round;stroke-linejoin:round;stroke-miterlimit:10;stroke-dasharray:none;stroke-opacity:1"
             id="path3512" /></g><g
           id="g3514"
           transform="translate(216,482)"><path
             d="M 0,0 V -0.023"
             style="fill:none;stroke-linecap:round;stroke-linejoin:round;stroke-miterlimit:10;stroke-dasharray:none;stroke-opacity:1"
             id="path3516" /></g></g></g></g></svg>
