<?xml version="1.0" encoding="UTF-8" standalone="no"?>
<!-- Created with Inkscape (http://www.inkscape.org/) -->

<svg
   version="1.1"
   id="svg3369"
   xml:space="preserve"
   width="682.66669"
   height="682.66669"
   viewBox="0 0 682.66669 682.66669"
   xmlns="http://www.w3.org/2000/svg"
   xmlns:svg="http://www.w3.org/2000/svg"><defs
     id="defs3373"><clipPath
       clipPathUnits="userSpaceOnUse"
       id="clipPath3383"><path
         d="M 0,512 H 512 V 0 H 0 Z"
         id="path3381" /></clipPath></defs><g
     id="g3375"
     transform="matrix(1.3333333,0,0,-1.3333333,0,682.66667)"><g
       id="g3377"><g
         id="g3379"
         clip-path="url(#clipPath3383)"><g
           id="g3385"
           transform="translate(163.0744,381.6207)"><path
             d="m 0,0 h -102.439 c -27.965,0 -50.635,-22.67 -50.635,-50.636 v -194.493 c 0,-27.965 22.67,-50.636 50.635,-50.636 h 17.723 l 43.627,-75.564 43.628,75.564 H 234.29 c 27.965,0 50.636,22.671 50.636,50.636 v 194.493 c 0,9.139 -2.421,17.712 -6.657,25.113"
             style="fill:none;stroke-linecap:round;stroke-linejoin:round;stroke-miterlimit:10;stroke-dasharray:none;stroke-opacity:1"
             id="path3387" /></g><g
           id="g3389"
           transform="translate(381.9123,381.6207)"><path
             d="M 0,0 H -128.839"
             style="fill:none;stroke-linecap:round;stroke-linejoin:round;stroke-miterlimit:10;stroke-dasharray:none;stroke-opacity:1"
             id="path3391" /></g><g
           id="g3393"
           transform="translate(90.0016,289.7087)"><path
             d="M 0,0 H 236.146"
             style="fill:none;stroke-linecap:round;stroke-linejoin:round;stroke-miterlimit:10;stroke-dasharray:none;stroke-opacity:1"
             id="path3395" /></g><g
           id="g3397"
           transform="translate(90.0016,229.7087)"><path
             d="M 0,0 H 203.998"
             style="fill:none;stroke-linecap:round;stroke-linejoin:round;stroke-miterlimit:10;stroke-dasharray:none;stroke-opacity:1"
             id="path3399" /></g><g
           id="g3401"
           transform="translate(90.0016,169.7087)"><path
             d="M 0,0 H 197.559"
             style="fill:none;stroke-linecap:round;stroke-linejoin:round;stroke-miterlimit:10;stroke-dasharray:none;stroke-opacity:1"
             id="path3403" /></g><g
           id="g3405"
           transform="translate(486.9965,435.1834)"><path
             d="m 0,0 -55.382,31.975 10.715,18.558 c 8.829,15.293 28.385,20.533 43.678,11.703 15.293,-8.829 20.533,-28.385 11.703,-43.678 z"
             style="fill:none;stroke-linecap:round;stroke-linejoin:round;stroke-miterlimit:10;stroke-dasharray:none;stroke-opacity:1"
             id="path3407" /></g><g
           id="g3409"
           transform="translate(431.6146,467.1582)"><path
             d="m 0,0 -135.585,-234.839 -8.469,-78.62 63.851,46.645 135.585,234.839 z"
             style="fill:none;stroke-linecap:round;stroke-linejoin:round;stroke-miterlimit:10;stroke-dasharray:none;stroke-opacity:1"
             id="path3411" /></g><g
           id="g3413"
           transform="translate(300.1403,229.9456)"><path
             d="M 0,0 47.161,-27.229"
             style="fill:none;stroke-linecap:round;stroke-linejoin:round;stroke-miterlimit:10;stroke-dasharray:none;stroke-opacity:1"
             id="path3415" /></g><g
           id="g3417"
           transform="translate(208.0744,381.6207)"><path
             d="M 0,0 V 0"
             style="fill:none;stroke-linecap:round;stroke-linejoin:round;stroke-miterlimit:10;stroke-dasharray:none;stroke-opacity:1"
             id="path3419" /></g></g></g></g></svg>
