<?xml version="1.0" encoding="UTF-8"?>
<svg xmlns="http://www.w3.org/2000/svg" xmlns:xlink="http://www.w3.org/1999/xlink" version="1.1" id="Capa_1" x="0px" y="0px" viewBox="0 0 512 512" style="enable-background:new 0 0 512 512;" xml:space="preserve" width="512" height="512">
<g>
	<path style="fill:none;stroke:#000000;stroke-linecap:round;stroke-linejoin:round;stroke-miterlimit:10;" d="&#10;&#9;&#9;M299.25,213.75L299.25,213.75c-16.292-16.292-16.292-42.708,0-59l0,0c27.487-27.487,27.489-72.064,0.001-99.55&#10;&#9;&#9;C274.255,30.205,256,15,256,15s6.343,55.136-15,76c-24.505,23.955-78.788,16.22-107.267,56.438&#10;&#9;&#9;c-18.344,25.906-14.916,61.379,7.529,83.825L166,256c16.569,16.569,16.569,43.431,0,60l0,0c-16.569,16.569-43.431,16.569-60,0&#10;&#9;&#9;l-32.545-32.545c-0.67,5.876-1.028,11.73-1.028,17.545c0,133.101,82.188,196,183.573,196s183.573-62.899,183.573-196&#10;&#9;&#9;c0-41.74-18.055-85.426-42.838-125.735L358.25,213.75C341.958,230.042,315.542,230.042,299.25,213.75z"/>
	<path style="fill:none;stroke:#000000;stroke-linecap:round;stroke-linejoin:round;stroke-miterlimit:10;" d="&#10;&#9;&#9;M346,406c0-75-57.567-120-90-120c15,105-75.5,120-75.5,120c0,60,30.5,91,75.5,91C297.698,497,346,471,346,406z"/>
</g>















</svg>
