<svg version="1.1" id="Capa_1" xmlns="http://www.w3.org/2000/svg" xmlns:xlink="http://www.w3.org/1999/xlink" x="0px" y="0px" viewBox="0 0 512 512" style="enable-background:new 0 0 512 512;" xml:space="preserve">
<g>
	<g>
		<path d="M65.859,139.634c-1.809,6.232,5.424,11.132,10.54,7.14l35.707-27.861c-8.72-13.053-18.73-25.06-29.814-35.878&#10;&#9;&#9;&#9;L65.859,139.634z"/>
		<path d="M141.268,197.68c-4.073-18.171-10.246-35.332-18.205-51.289l-34.75,60.332c-3.191,5.541,2.465,11.973,8.368,9.515&#10;&#9;&#9;&#9;L141.268,197.68z"/>
	</g>
	<rect x="233.61" y="37" width="174.567" height="40.528"/>
	<path d="M221.017,352.242l29.397-20.846c3.422-2.427,8.004-2.427,11.426,0l29.397,20.846c6.54,4.638,15.589-0.039,15.589-8.056V229&#10;&#9;&#9;H205.428v115.186C205.428,352.204,214.477,356.88,221.017,352.242z"/>
	<path style="fill:none;stroke-linecap:round;stroke-linejoin:round;stroke-miterlimit:10;" d="&#10;&#9;&#9;M146.559,228.265c-1.191-9.666-2.846-19.43-4.985-29.247c-11.937-54.786-36.891-101.823-68.487-135.227&#10;&#9;&#9;c-20.793-21.983-57.374-2.447-50.932,27.118l29.903,137.247"/>
	
		<polyline style="fill:none;stroke-linecap:round;stroke-linejoin:round;stroke-miterlimit:10;" points="&#10;&#9;&#9;408.177,105.417 408.177,37 233.61,37 233.61,77.528 &#9;"/>
	<path style="fill:none;stroke-linecap:round;stroke-linejoin:round;stroke-miterlimit:10;" d="&#10;&#9;&#9;M146.363,229.127v-55.41c0-11.026,7.11-20.794,17.602-24.183l10.874-3.513c5.613-1.813,9.416-7.038,9.416-12.937v-9.739h49.354&#10;&#9;&#9;v9.739c0,5.898,3.803,11.124,9.416,12.937l10.874,3.513c10.492,3.389,17.602,13.157,17.602,24.183v55.41"/>
	
		<rect x="338.913" y="107.452" style="fill:none;stroke-linecap:round;stroke-linejoin:round;stroke-miterlimit:10;" width="105.067" height="40"/>
	<path style="fill:none;stroke-linecap:round;stroke-linejoin:round;stroke-miterlimit:10;" d="&#10;&#9;&#9;M320.893,228.265v-6.589c0-11.855,5.646-23.002,15.204-30.016l0,0c9.558-7.014,15.204-18.161,15.204-30.016v-14.192"/>
	<path style="fill:none;stroke-linecap:round;stroke-linejoin:round;stroke-miterlimit:10;" d="&#10;&#9;&#9;M431.592,147.452v14.192c0,11.855,5.646,23.002,15.204,30.016l0,0c9.558,7.014,15.204,18.161,15.204,30.016v109.318"/>
	
		<rect x="176.59" y="77.528" style="fill:none;stroke-linecap:round;stroke-linejoin:round;stroke-miterlimit:10;" width="64.684" height="45.818"/>
	
		<rect x="50" y="229.127" style="fill:none;stroke-linecap:round;stroke-linejoin:round;stroke-miterlimit:10;" width="412" height="245.873"/>
	
		<line style="fill:none;stroke-linecap:round;stroke-linejoin:round;stroke-miterlimit:10;" x1="462" y1="229.127" x2="502" y2="360.994"/>
	
		<line style="fill:none;stroke-linecap:round;stroke-linejoin:round;stroke-miterlimit:10;" x1="50" y1="229.127" x2="10" y2="360.994"/>
</g>
<g>
</g>
<g>
</g>
<g>
</g>
<g>
</g>
<g>
</g>
<g>
</g>
<g>
</g>
<g>
</g>
<g>
</g>
<g>
</g>
<g>
</g>
<g>
</g>
<g>
</g>
<g>
</g>
<g>
</g>
</svg>