<?xml version="1.0" encoding="UTF-8" standalone="no"?>
<!-- Created with Inkscape (http://www.inkscape.org/) -->

<svg
   version="1.1"
   id="svg9"
   xml:space="preserve"
   width="682.66669"
   height="682.66669"
   viewBox="0 0 682.66669 682.66669"
   xmlns="http://www.w3.org/2000/svg"
   xmlns:svg="http://www.w3.org/2000/svg"><defs
     id="defs13"><clipPath
       clipPathUnits="userSpaceOnUse"
       id="clipPath23"><path
         d="M 0,512 H 512 V 0 H 0 Z"
         id="path21" /></clipPath></defs><g
     id="g15"
     transform="matrix(1.3333333,0,0,-1.3333333,0,682.66667)"><g
       id="g17"><g
         id="g19"
         clip-path="url(#clipPath23)"><g
           id="g25"
           transform="translate(442.2981,232.9561)"><path
             d="m 0,0 -177.896,-164.223 c -0.147,-0.136 -0.291,-0.274 -0.432,-0.415 -2.129,-2.129 -4.96,-3.301 -7.97,-3.301 -2.842,0 -5.556,1.06 -7.641,2.985 L -372.595,0 c -25.232,23.296 -39.703,56.341 -39.703,90.662 0,68.024 55.341,123.365 123.365,123.365 34.794,0 68.149,-14.811 91.511,-40.636 2.844,-3.143 6.885,-4.937 11.124,-4.937 4.239,0 8.28,1.794 11.123,4.937 23.363,25.825 56.718,40.636 91.512,40.636 68.024,0 123.365,-55.341 123.365,-123.365 C 39.702,56.341 25.231,23.296 0,0 m -83.663,244.027 c -37.997,0 -74.611,-14.205 -102.635,-39.417 -28.024,25.212 -64.638,39.417 -102.635,39.417 -84.566,0 -153.365,-68.799 -153.365,-153.365 0,-42.667 17.988,-83.746 49.352,-112.704 l 178.656,-164.954 c 7.643,-7.057 17.584,-10.943 27.992,-10.943 10.913,0 21.179,4.207 28.947,11.853 L 20.35,-22.042 c 31.364,28.958 49.352,70.037 49.352,112.704 0,84.566 -68.799,153.365 -153.365,153.365"
             style="fill:#000000;fill-opacity:1;fill-rule:nonzero;stroke:none"
             id="path27" /></g></g></g></g></svg>
