<?xml version="1.0" encoding="UTF-8"?>
<!DOCTYPE svg PUBLIC "-//W3C//DTD SVG 1.1//EN" "http://www.w3.org/Graphics/SVG/1.1/DTD/svg11.dtd">
<!-- Creator: CorelDRAW 2020 (64-Bit) -->
<svg xmlns="http://www.w3.org/2000/svg" xml:space="preserve" width="20.75591in" height="120.9921in" version="1.1" style="shape-rendering:geometricPrecision; text-rendering:geometricPrecision; image-rendering:optimizeQuality; fill-rule:evenodd; clip-rule:evenodd"
viewBox="0 0 2755.91 12992.13"
 xmlns:xlink="http://www.w3.org/1999/xlink"
 xmlns:xodm="http://www.corel.com/coreldraw/odm/2003">
 <defs>
  <style type="text/css">
   <![CDATA[
    .fil0 {fill:#00482D}
   ]]>
  </style>
 </defs>
 <g id="Layer_x0020_1">
  <metadata id="CorelCorpID_0Corel-Layer"/>
  <g id="_2216104472560">
   <path class="fil0" d="M-4207.41 2183.8c-9.69,-1.12 -6.2,0.87 -13.11,-8.47l-72.09 -140.91c-15.05,-17.33 -45.6,-6.93 -36.52,17.78 13.22,35.99 33.91,69.11 51.53,102.85l48.96 87.19c5.16,13.32 9.7,6.47 -0.8,10.03 5.73,13.67 9.07,16.36 16.8,28.87l88.91 142.33c34.5,51.76 168.33,248.67 176.93,285.59 -54.88,-12.79 -201.87,-116.7 -239.08,-146.35 -36.78,-29.3 -68.37,-59.67 -101.45,-93.09 -126.02,-127.36 -177.37,-295.91 -204.41,-474.68 -14.37,-95.01 -9.34,-186.37 -9.34,-284.32 19.43,5.19 271,201.28 306.79,229.13 69.07,53.74 166.5,159.3 205.93,238.23 126.39,253.02 75.81,440.24 89.28,498.04 -9.71,-7.11 -7.34,-7.99 -18.35,-29.37 -67.21,-130.52 -221.83,-326.93 -289.99,-462.85zm488.2 433.49c3.05,-13.08 14.5,-33.65 20.96,-48.78 7.06,-16.53 15.48,-31.45 23.08,-46.66 7.87,-15.73 14.87,-29.71 23.25,-46.5 9.2,-18.44 16.96,-30.22 25.74,-47.67 23.26,-46.2 79.52,-134.96 106.73,-179.59 26.67,-43.74 215.02,-329.05 215.02,-353.94 0,-22.08 -21.2,-33.87 -38.6,-24.32 -14.99,8.24 -61.46,94.59 -74.03,117.25 -5.57,10.03 -10.48,16.08 -15.68,24.7l-176.36 278.81c-25.58,38.69 -47.37,81.98 -69.91,120.97 -25.8,44.63 -61.92,119.47 -80.98,168.63l-6.96 15.07 -3.89 -91.7 17.48 -195.7c4.88,-29.95 11.41,-62.11 18.99,-87.46 35.05,-117.1 60.54,-184.86 137.83,-287.97 30.17,-40.24 61.65,-77.63 96.63,-112.61l108.92 -103.98c37.73,-29.19 73.5,-63.52 116.95,-95.95l123.76 -89.13 7.34 110.12c0,205.95 -3.63,368.37 -108.96,544.43 -50.7,84.76 -92.31,132.2 -159.92,199.81 -65.11,65.11 -172.28,146.55 -251.64,196.19 -10.03,6.28 -17.3,10.59 -27.14,16.91l-28.64 19.08zm-102.78 -117.46c0,37.05 2.77,60.91 3.57,95.54 0.7,29.98 10.69,60.28 12.41,89.57l-36.26 135.98c-4.83,17.81 2.88,7.85 -9.08,16.61 0,-77.09 -0.61,-165.13 3.69,-242.34 1.19,-21.29 4.14,-27.8 1.98,-45.92 -2.5,-21.02 -0.5,-39.53 -2.2,-60.26 -8.08,-98.63 -31.72,-213.43 -73.17,-297.57 -58.63,-119.03 -62.62,-104.09 -122.74,-181.93 -9.84,-12.74 -19.43,-20.69 -30.57,-31.83 -48.4,-48.4 -80.18,-74.39 -130.53,-115.41 -12.33,-10.04 -23.78,-17.73 -35.61,-26.8 -74.88,-57.37 -184.37,-132.02 -248.42,-184.72 -9.7,-7.98 -26.16,-22.61 -37.96,-23.05 -14.5,-0.54 -29.26,13.58 -29.26,31.54 0,227.85 -5.33,404.87 75.48,607.28 16.12,40.37 44.64,93.63 68.34,129.87 5.51,8.42 8.81,11.67 13.99,19.04 113.7,161.78 282.74,277.07 458.88,363.36 35.5,17.39 33.17,18.36 44.59,87.55 25.73,155.81 6.15,130.98 14.12,250.18 1.47,22.04 11.72,33.01 31.57,30.89 22.89,-2.44 23.83,-17.59 23.66,-41.76 -0.35,-49.28 2.01,-81.17 6.53,-121.94 9.79,-88.33 33.63,-185.97 62.5,-267.87 8.59,-24.37 9.65,-23.47 31.03,-35.04 49.23,-26.62 166.7,-106.63 219.15,-144.25l72.89 -59.26c95.39,-76.98 199.35,-202.44 252.57,-309.05 82.85,-165.96 92.99,-309.33 92.99,-498l-5.2 -119.61c-14.54,-100.66 -6.39,-123.98 -101.81,-53.47l-124.21 92.36c-21.34,16.33 -40.78,30.33 -61.62,48.5l-57.43 49.02c-36.55,28.39 -118.87,112.27 -148.43,148.89l-60.26 75.56c-21.33,28.61 -46.24,66.13 -62.59,98.92l-18.41 36.65c-68.03,146.1 -94.19,285.32 -94.19,452.75z"/>
   <path class="fil0" d="M-4229.44 2252.27c10.49,-3.56 5.96,3.29 0.8,-10.03l-48.96 -87.19c-17.62,-33.73 -38.3,-66.85 -51.53,-102.85 -9.08,-24.7 21.47,-35.11 36.52,-17.78l72.09 140.91c6.9,9.34 3.41,7.35 13.11,8.47l-67.3 -126.91c-27.38,-59.51 -54.4,-35.8 -60.26,-21.98 -5.92,13.96 -1.1,20.44 5.58,32.55 29.35,53.2 64.65,135.61 99.95,184.81z"/>
  </g>
 </g>
</svg>
