<?xml version="1.0" encoding="UTF-8"?>
<svg xmlns="http://www.w3.org/2000/svg" xmlns:xlink="http://www.w3.org/1999/xlink" version="1.1" id="Capa_1" x="0px" y="0px" viewBox="0 0 511.961 511.961" style="enable-background:new 0 0 511.961 511.961;" xml:space="preserve" width="512" height="512">
<g>
	<path style="fill:none;stroke=#000;stroke-miterlimit:10;" d="M310.77,102.367&#10;&#9;&#9;c62.064-62.064,186.191-62.064,186.191-62.064s0,124.127-62.064,186.191c-44.331,44.331-107.583,52.009-141.86,17.732&#10;&#9;&#9;S266.439,146.698,310.77,102.367z"/>
	<path style="fill:none;stroke-miterlimit:10;" d="M398.48,138.785L294.195,243.069&#10;&#9;&#9;c-24.448,24.448-38.183,57.607-38.183,92.182v93.926"/>
	<path style="fill:none;stroke-miterlimit:10;" d="M174.071,194.694&#10;&#9;&#9;C121.047,141.67,15,141.67,15,141.67s0,106.047,53.024,159.071c37.874,37.874,91.913,44.434,121.197,15.15&#10;&#9;&#9;C218.504,286.606,211.945,232.568,174.071,194.694z"/>
	<path style="fill:none;stroke-miterlimit:10;" d="M96.206,222.876l126.93,126.93&#10;&#9;&#9;c21.05,21.05,32.876,49.6,32.876,79.37v57.481"/>
</g>















</svg>
