<svg version="1.1" id="Capa_1" xmlns="http://www.w3.org/2000/svg" xmlns:xlink="http://www.w3.org/1999/xlink" x="0px" y="0px" viewBox="0 0 512 512" style="enable-background:new 0 0 512 512;" xml:space="preserve">
<g>
	<path style="fill:none;stroke-miterlimit:10;" d="M210.434,392.163v-90.597&#10;&#9;&#9;C210.434,143.3,338.734,15,497,15l0,0v107.462c0,158.266-128.3,286.566-286.566,286.566"/>
	<path style="fill:none;stroke-miterlimit:10;" d="M210.434,409.028V335.74&#10;&#9;&#9;c0-107.935-87.499-195.434-195.434-195.434l0,0v73.288C15,321.529,102.499,409.028,210.434,409.028"/>
	<path style="fill:none;stroke-miterlimit:10;" d="M210.434,409.028V512"/>
	<path style="fill:none;stroke-miterlimit:10;" d="M83,225l127.434,184.028"/>
	<path style="fill:none;stroke-miterlimit:10;" d="M210.434,409.028C210.434,409.028,289,166,422,83&#10;&#9;&#9;"/>
	<path style="fill:none;stroke-miterlimit:10;" d="M344.386,157.364&#10;&#9;&#9;c-0.224,3.495,2.737,6.317,5.618,8.309c10.915,7.544,24.522,11.102,37.733,9.869c13.211-1.234,25.924-7.251,35.253-16.685"/>
	<path style="fill:none;stroke-miterlimit:10;" d="M270.806,278.21&#10;&#9;&#9;c19.091,1.318,38.496,0.67,56.992-4.239c18.496-4.909,36.106-14.293,48.886-28.537"/>
</g>
<g>
</g>
<g>
</g>
<g>
</g>
<g>
</g>
<g>
</g>
<g>
</g>
<g>
</g>
<g>
</g>
<g>
</g>
<g>
</g>
<g>
</g>
<g>
</g>
<g>
</g>
<g>
</g>
<g>
</g>
</svg>