<?xml version="1.0" encoding="UTF-8" standalone="no"?>
<!-- Created with Inkscape (http://www.inkscape.org/) -->

<svg
   version="1.1"
   id="svg147"
   xml:space="preserve"
   width="682.66669"
   height="682.66669"
   viewBox="0 0 682.66669 682.66669"
   xmlns="http://www.w3.org/2000/svg"
   xmlns:svg="http://www.w3.org/2000/svg"><defs
     id="defs151"><clipPath
       clipPathUnits="userSpaceOnUse"
       id="clipPath161"><path
         d="M 0,512 H 512 V 0 H 0 Z"
         id="path159" /></clipPath></defs><g
     id="g153"
     transform="matrix(1.3333333,0,0,-1.3333333,0,682.66667)"><g
       id="g155"><g
         id="g157"
         clip-path="url(#clipPath161)"><g
           id="g163"
           transform="translate(256,502.2226)"><path
             d="M 0,0 C 53.679,-31.053 89.797,-89.088 89.797,-155.561 89.797,-222.035 53.679,-280.07 0,-311.123 -53.679,-280.07 -89.797,-222.035 -89.797,-155.561 -89.797,-89.088 -53.679,-31.053 0,0 Z"
             style="fill:none;stroke-linecap:round;stroke-linejoin:round;stroke-miterlimit:10;stroke-dasharray:none;stroke-opacity:1"
             id="path165" /></g><g
           id="g167"
           transform="translate(256,199.3466)"><path
             d="M 0,0 V 147.315"
             style="fill:none;stroke-linecap:round;stroke-linejoin:round;stroke-miterlimit:10;stroke-dasharray:none;stroke-opacity:1"
             id="path169" /></g><g
           id="g171"
           transform="translate(410.9517,77.2646)"><path
             d="M 0,0 C -44.953,-27.508 -98.857,-34.637 -148.452,-21.394 -165.4,42.074 -148.983,112.598 -99.192,162.39 -49.4,212.181 21.124,228.598 84.592,211.65 97.836,162.052 90.705,108.145 63.194,63.191"
             style="fill:none;stroke-linecap:round;stroke-linejoin:round;stroke-miterlimit:10;stroke-dasharray:none;stroke-opacity:1"
             id="path173" /></g><g
           id="g175"
           transform="translate(268.6769,62.0479)"><path
             d="M 0,0 110.345,110.345"
             style="fill:none;stroke-linecap:round;stroke-linejoin:round;stroke-miterlimit:10;stroke-dasharray:none;stroke-opacity:1"
             id="path177" /></g><g
           id="g179"
           transform="translate(16.4565,288.9145)"><path
             d="m 0,0 c -16.948,-63.468 -0.531,-133.992 49.26,-183.783 49.792,-49.792 120.316,-66.209 183.784,-49.261 16.948,63.468 0.531,133.992 -49.261,183.784 C 133.992,0.531 63.468,16.948 0,0 Z"
             style="fill:none;stroke-linecap:round;stroke-linejoin:round;stroke-miterlimit:10;stroke-dasharray:none;stroke-opacity:1"
             id="path181" /></g><g
           id="g183"
           transform="translate(243.3231,62.0479)"><path
             d="M 0,0 -110.345,110.345"
             style="fill:none;stroke-linecap:round;stroke-linejoin:round;stroke-miterlimit:10;stroke-dasharray:none;stroke-opacity:1"
             id="path185" /></g><g
           id="g187"
           transform="translate(256,191.0999)"><path
             d="M 0,0 V -181.1"
             style="fill:none;stroke-linecap:round;stroke-linejoin:round;stroke-miterlimit:10;stroke-dasharray:none;stroke-opacity:1"
             id="path189" /></g><g
           id="g191"
           transform="translate(446.2832,105.1312)"><path
             d="M 0,0 V 0"
             style="fill:none;stroke-linecap:round;stroke-linejoin:round;stroke-miterlimit:10;stroke-dasharray:none;stroke-opacity:1"
             id="path193" /></g></g></g></g></svg>
