<?xml version="1.0" encoding="UTF-8" standalone="no"?>
<!-- Created with Inkscape (http://www.inkscape.org/) -->

<svg
   version="1.1"
   id="svg9"
   xml:space="preserve"
   width="682.66669"
   height="682.66669"
   viewBox="0 0 682.66669 682.66669"
   xmlns="http://www.w3.org/2000/svg"
   xmlns:svg="http://www.w3.org/2000/svg"><defs
     id="defs13"><clipPath
       clipPathUnits="userSpaceOnUse"
       id="clipPath23"><path
         d="M 0,512 H 512 V 0 H 0 Z"
         id="path21" /></clipPath></defs><g
     id="g15"
     transform="matrix(1.3333333,0,0,-1.3333333,0,682.66667)"><g
       id="g17"><g
         id="g19"
         clip-path="url(#clipPath23)"><g
           id="g25"
           transform="translate(255.9277,470.8003)"><path
             d="m 0,0 c 84.307,41.016 166.378,43.074 212.161,-2.708 68.792,-68.792 29.604,-219.515 -87.529,-336.648 -117.133,-117.133 -267.855,-156.321 -336.648,-87.528 -68.792,68.792 -29.605,219.514 87.529,336.647 15.592,15.592 31.783,29.792 48.293,42.548"
             style="fill:none;stroke:#000000;stroke-linecap:round;stroke-linejoin:round;stroke-miterlimit:22.926;stroke-dasharray:none;stroke-opacity:1"
             id="path27" /></g><g
           id="g29"
           transform="translate(275.9399,275.9438)"><path
             d="M 0,0 C 44.286,-44.286 68.909,-91.463 54.999,-105.373 41.088,-119.284 4.406,-84.165 -39.88,-39.879 -84.166,4.406 -119.284,41.088 -105.374,54.999 -91.463,68.909 -44.286,44.286 0,0 Z"
             style="fill:none;stroke:#000000;stroke-linecap:round;stroke-linejoin:round;stroke-miterlimit:22.926;stroke-dasharray:none;stroke-opacity:1"
             id="path31" /></g><g
           id="g33"
           transform="translate(379.8843,379.8887)"><path
             d="M 0,0 C 33.507,-33.507 49.393,-71.947 35.482,-85.857 21.572,-99.768 -6.373,-73.387 -39.879,-39.88 -73.387,-6.373 -99.768,21.571 -85.857,35.482 -71.946,49.393 -33.507,33.507 0,0 Z"
             style="fill:none;stroke:#000000;stroke-linecap:round;stroke-linejoin:round;stroke-miterlimit:22.926;stroke-dasharray:none;stroke-opacity:1"
             id="path35" /></g><g
           id="g37"
           transform="translate(171.9951,171.999)"><path
             d="M 0,0 C 33.507,-33.507 49.393,-71.946 35.482,-85.857 21.571,-99.768 -6.373,-73.387 -39.879,-39.879 -73.387,-6.373 -99.768,21.572 -85.857,35.482 -71.946,49.393 -33.507,33.507 0,0 Z"
             style="fill:none;stroke:#000000;stroke-linecap:round;stroke-linejoin:round;stroke-miterlimit:22.926;stroke-dasharray:none;stroke-opacity:1"
             id="path39" /></g><g
           id="g41"
           transform="translate(216.6011,448.9106)"><path
             d="M 0,0 H 0.007"
             style="fill:none;stroke:#000000;stroke-linecap:round;stroke-linejoin:round;stroke-miterlimit:2.613;stroke-dasharray:none;stroke-opacity:1"
             id="path43" /></g></g></g></g></svg>
