<?xml version="1.0" encoding="UTF-8" standalone="no"?>
<!-- Created with Inkscape (http://www.inkscape.org/) -->

<svg
   version="1.1"
   id="svg168"
   xml:space="preserve"
   width="682.66669"
   height="682.66669"
   viewBox="0 0 682.66669 682.66669"
   xmlns="http://www.w3.org/2000/svg"
   xmlns:svg="http://www.w3.org/2000/svg"><defs
     id="defs172"><clipPath
       clipPathUnits="userSpaceOnUse"
       id="clipPath182"><path
         d="M 0,512 H 512 V 0 H 0 Z"
         id="path180" /></clipPath></defs><g
     id="g174"
     transform="matrix(1.3333333,0,0,-1.3333333,0,682.66667)"><g
       id="g176"><g
         id="g178"
         clip-path="url(#clipPath182)"><g
           id="g184"
           transform="translate(479.4229,419)"><path
             d="m 0,0 13.581,23.522 c 8.25,14.291 3.309,32.731 -10.98,40.981 H 2.6 c -14.289,8.251 -32.731,3.31 -40.981,-10.98 L -52.539,29"
             style="fill:none;stroke:#000000;stroke-linecap:round;stroke-linejoin:round;stroke-miterlimit:22.926;stroke-dasharray:none;stroke-opacity:1"
             id="path186" /></g><g
           id="g188"
           transform="translate(245.998,84.5005)"><path
             d="M 0,0 H -230.998"
             style="fill:none;stroke:#000000;stroke-linecap:round;stroke-linejoin:round;stroke-miterlimit:22.926;stroke-dasharray:none;stroke-opacity:1"
             id="path190" /></g><g
           id="g192"
           transform="translate(483.1992,413.542)"><path
             d="m 0,0 -62.354,36 -148.5,-257.209 62.355,-36 z"
             style="fill:none;stroke:#000000;stroke-linecap:round;stroke-linejoin:round;stroke-miterlimit:22.926;stroke-dasharray:none;stroke-opacity:1"
             id="path194" /></g><g
           id="g196"
           transform="translate(426.042,446.542)"><path
             d="m 0,0 -18.183,10.498 c -21.464,12.392 -49.079,4.993 -61.47,-16.471 l -43.499,-75.343 c -7.437,-12.88 -24.007,-17.32 -36.887,-9.883 l -2.597,1.499"
             style="fill:none;stroke:#000000;stroke-linecap:round;stroke-linejoin:round;stroke-miterlimit:22.926;stroke-dasharray:none;stroke-opacity:1"
             id="path198" /></g><g
           id="g200"
           transform="translate(334.7002,156.3325)"><path
             d="M 0,0 -62.354,36 -83.177,-72.067 Z"
             style="fill:none;stroke:#000000;stroke-linecap:round;stroke-linejoin:round;stroke-miterlimit:22.926;stroke-dasharray:none;stroke-opacity:1"
             id="path202" /></g><g
           id="g204"
           transform="translate(222.9995,24.5005)"><path
             d="M 0,0 H -208"
             style="fill:none;stroke:#000000;stroke-linecap:round;stroke-linejoin:round;stroke-miterlimit:22.926;stroke-dasharray:none;stroke-opacity:1"
             id="path206" /></g></g></g></g></svg>
