<svg version="1.1" id="Capa_1" xmlns="http://www.w3.org/2000/svg" xmlns:xlink="http://www.w3.org/1999/xlink" x="0px" y="0px" viewBox="0 0 512 512" style="enable-background:new 0 0 512 512;" xml:space="preserve">
<g>
	
		<line style="fill:none;stroke:#000000;stroke-linecap:round;stroke-linejoin:round;stroke-miterlimit:10;" x1="74.168" y1="125.587" x2="74.168" y2="75.42"/>
	
		<line style="fill:none;stroke:#000000;stroke-linecap:round;stroke-linejoin:round;stroke-miterlimit:10;" x1="74.168" y1="203.9" x2="74.168" y2="155.587"/>
	
		<line style="fill:none;stroke:#000000;stroke-linecap:round;stroke-linejoin:round;stroke-miterlimit:10;" x1="74.168" y1="281.702" x2="74.168" y2="233.9"/>
	
		<line style="fill:none;stroke:#000000;stroke-linecap:round;stroke-linejoin:round;stroke-miterlimit:10;" x1="74.168" y1="361.817" x2="74.168" y2="311.702"/>
	
		<line style="fill:none;stroke:#000000;stroke-linecap:round;stroke-linejoin:round;stroke-miterlimit:10;" x1="74.168" y1="440.99" x2="74.168" y2="391.817"/>
	<g>
		<path style="fill:none;stroke:#000000;stroke-linecap:round;stroke-linejoin:round;stroke-miterlimit:10;" d="&#10;&#9;&#9;&#9;M252.856,99.852c-3.25-0.544-6.377-0.309-9.256,0.514c-3.397-14.303-16.245-24.945-31.586-24.945s-28.19,10.642-31.586,24.945&#10;&#9;&#9;&#9;c-2.89-0.825-6.029-1.059-9.292-0.508c-9.236,1.562-16.394,9.276-17.257,18.603c-0.824,8.903,3.943,16.784,11.193,20.544&#10;&#9;&#9;&#9;c3.801,1.971,6.079,6.005,6.079,10.287c0,9.419,0,24.742,0,34.176c0,4.578,3.712,8.285,8.29,8.285h61.618&#10;&#9;&#9;&#9;c4.578,0,8.29-3.712,8.29-8.29v-32.738c0-4.807,3.02-9.039,7.506-10.767c8.423-3.243,14.215-11.786,13.292-21.543&#10;&#9;&#9;&#9;C269.263,109.098,262.086,101.396,252.856,99.852z"/>
		
			<line style="fill:none;stroke:#000000;stroke-linecap:round;stroke-linejoin:round;stroke-miterlimit:10;" x1="172.532" y1="165.877" x2="248.434" y2="165.877"/>
		<path style="fill:none;stroke:#000000;stroke-linecap:round;stroke-linejoin:round;stroke-miterlimit:10;" d="&#10;&#9;&#9;&#9;M336.574,504.5H89.521c-8.479,0-15.353-6.874-15.353-15.353V470.99"/>
		<path style="fill:none;stroke:#000000;stroke-linecap:round;stroke-linejoin:round;stroke-miterlimit:10;" d="&#10;&#9;&#9;&#9;M205.389,7.5h253.577c8.479,0,15.353,6.874,15.353,15.353v466.294c0,8.479-6.874,15.353-15.353,15.353h-85.392"/>
		<path style="fill:none;stroke:#000000;stroke-linecap:round;stroke-linejoin:round;stroke-miterlimit:10;" d="&#10;&#9;&#9;&#9;M74.168,44.572V22.853c0-8.479,6.874-15.353,15.353-15.353h78.868"/>
		
			<line style="fill:none;stroke:#000000;stroke-linecap:round;stroke-linejoin:round;stroke-miterlimit:10;" x1="274.243" y1="256" x2="274.243" y2="504.5"/>
		
			<line style="fill:none;stroke:#000000;stroke-linecap:round;stroke-linejoin:round;stroke-miterlimit:10;" x1="74.168" y1="256" x2="474.319" y2="256"/>
		<path style="fill:none;stroke:#000000;stroke-linecap:round;stroke-linejoin:round;stroke-miterlimit:10;" d="&#10;&#9;&#9;&#9;M98.232,74.577H50.888c-7.294,0-13.207-5.913-13.207-13.207v0c0-7.294,5.913-13.207,13.207-13.207h47.344&#10;&#9;&#9;&#9;c7.294,0,13.207,5.913,13.207,13.207v0C111.439,68.664,105.526,74.577,98.232,74.577z"/>
		<path style="fill:none;stroke:#000000;stroke-linecap:round;stroke-linejoin:round;stroke-miterlimit:10;" d="&#10;&#9;&#9;&#9;M98.232,153.397H50.888c-7.294,0-13.207-5.913-13.207-13.207v0c0-7.294,5.913-13.207,13.207-13.207h47.344&#10;&#9;&#9;&#9;c7.294,0,13.207,5.913,13.207,13.207v0C111.439,147.484,105.526,153.397,98.232,153.397z"/>
		<path style="fill:none;stroke:#000000;stroke-linecap:round;stroke-linejoin:round;stroke-miterlimit:10;" d="&#10;&#9;&#9;&#9;M98.232,232.217H50.888c-7.294,0-13.207-5.913-13.207-13.207v0c0-7.294,5.913-13.207,13.207-13.207h47.344&#10;&#9;&#9;&#9;c7.294,0,13.207,5.913,13.207,13.207v0C111.439,226.304,105.526,232.217,98.232,232.217z"/>
		<path style="fill:none;stroke:#000000;stroke-linecap:round;stroke-linejoin:round;stroke-miterlimit:10;" d="&#10;&#9;&#9;&#9;M98.232,442.264H50.888c-7.294,0-13.207,5.913-13.207,13.207v0c0,7.294,5.913,13.207,13.207,13.207h47.344&#10;&#9;&#9;&#9;c7.294,0,13.207-5.913,13.207-13.207v0C111.439,448.177,105.526,442.264,98.232,442.264z"/>
		<path style="fill:none;stroke:#000000;stroke-linecap:round;stroke-linejoin:round;stroke-miterlimit:10;" d="&#10;&#9;&#9;&#9;M98.232,363.443H50.888c-7.294,0-13.207,5.913-13.207,13.207l0,0c0,7.294,5.913,13.207,13.207,13.207h47.344&#10;&#9;&#9;&#9;c7.294,0,13.207-5.913,13.207-13.207l0,0C111.439,369.356,105.526,363.443,98.232,363.443z"/>
		<path style="fill:none;stroke:#000000;stroke-linecap:round;stroke-linejoin:round;stroke-miterlimit:10;" d="&#10;&#9;&#9;&#9;M98.232,284.623H50.888c-7.294,0-13.207,5.913-13.207,13.207v0c0,7.294,5.913,13.207,13.207,13.207h47.344&#10;&#9;&#9;&#9;c7.294,0,13.207-5.913,13.207-13.207v0C111.439,290.536,105.526,284.623,98.232,284.623z"/>
		
			<line style="fill:none;stroke:#000000;stroke-linecap:round;stroke-linejoin:round;stroke-miterlimit:10;" x1="312.588" y1="297.83" x2="434.561" y2="297.83"/>
		
			<line style="fill:none;stroke:#000000;stroke-linecap:round;stroke-linejoin:round;stroke-miterlimit:10;" x1="312.588" y1="332.402" x2="434.561" y2="332.402"/>
		
			<line style="fill:none;stroke:#000000;stroke-linecap:round;stroke-linejoin:round;stroke-miterlimit:10;" x1="312.588" y1="366.973" x2="434.561" y2="366.973"/>
		
			<line style="fill:none;stroke:#000000;stroke-linecap:round;stroke-linejoin:round;stroke-miterlimit:10;" x1="312.588" y1="401.544" x2="434.561" y2="401.544"/>
		
			<line style="fill:none;stroke:#000000;stroke-linecap:round;stroke-linejoin:round;stroke-miterlimit:10;" x1="312.588" y1="436.116" x2="434.561" y2="436.116"/>
		
			<line style="fill:none;stroke:#000000;stroke-linecap:round;stroke-linejoin:round;stroke-miterlimit:10;" x1="312.588" y1="69.177" x2="323.614" y2="69.177"/>
		
			<line style="fill:none;stroke:#000000;stroke-linecap:round;stroke-linejoin:round;stroke-miterlimit:10;" x1="350.489" y1="69.177" x2="434.561" y2="69.177"/>
		
			<line style="fill:none;stroke:#000000;stroke-linecap:round;stroke-linejoin:round;stroke-miterlimit:10;" x1="312.588" y1="103.748" x2="323.614" y2="103.748"/>
		
			<line style="fill:none;stroke:#000000;stroke-linecap:round;stroke-linejoin:round;stroke-miterlimit:10;" x1="350.489" y1="103.748" x2="434.561" y2="103.748"/>
		
			<line style="fill:none;stroke:#000000;stroke-linecap:round;stroke-linejoin:round;stroke-miterlimit:10;" x1="312.588" y1="138.319" x2="323.614" y2="138.319"/>
		
			<line style="fill:none;stroke:#000000;stroke-linecap:round;stroke-linejoin:round;stroke-miterlimit:10;" x1="350.489" y1="138.319" x2="434.561" y2="138.319"/>
		
			<line style="fill:none;stroke:#000000;stroke-linecap:round;stroke-linejoin:round;stroke-miterlimit:10;" x1="312.588" y1="172.891" x2="323.614" y2="172.891"/>
		
			<line style="fill:none;stroke:#000000;stroke-linecap:round;stroke-linejoin:round;stroke-miterlimit:10;" x1="350.489" y1="172.891" x2="434.561" y2="172.891"/>
		
			<line style="fill:none;stroke:#000000;stroke-linecap:round;stroke-linejoin:round;stroke-miterlimit:10;" x1="312.588" y1="207.462" x2="323.614" y2="207.462"/>
		
			<line style="fill:none;stroke:#000000;stroke-linecap:round;stroke-linejoin:round;stroke-miterlimit:10;" x1="350.489" y1="207.462" x2="434.561" y2="207.462"/>
		<path style="fill:none;stroke:#000000;stroke-linecap:round;stroke-linejoin:round;stroke-miterlimit:10;" d="&#10;&#9;&#9;&#9;M230.642,325.574h-84.905c-3.7,0-6.7-3-6.7-6.7v-14.343c0-3.701,3-6.7,6.7-6.7h84.905c3.7,0,6.7,3,6.7,6.7v14.343&#10;&#9;&#9;&#9;C237.342,322.575,234.342,325.574,230.642,325.574z"/>
		<path style="fill:none;stroke:#000000;stroke-linecap:round;stroke-linejoin:round;stroke-miterlimit:10;" d="&#10;&#9;&#9;&#9;M230.642,386.347h-84.905c-3.7,0-6.7-3-6.7-6.7v-14.343c0-3.7,3-6.7,6.7-6.7h84.905c3.7,0,6.7,3,6.7,6.7v14.343&#10;&#9;&#9;&#9;C237.342,383.347,234.342,386.347,230.642,386.347z"/>
		<path style="fill:none;stroke:#000000;stroke-linecap:round;stroke-linejoin:round;stroke-miterlimit:10;" d="&#10;&#9;&#9;&#9;M230.642,447.12h-84.905c-3.7,0-6.7-3-6.7-6.7v-14.343c0-3.701,3-6.7,6.7-6.7h84.905c3.7,0,6.7,3,6.7,6.7v14.343&#10;&#9;&#9;&#9;C237.342,444.12,234.342,447.12,230.642,447.12z"/>
	</g>
</g>
<g>
</g>
<g>
</g>
<g>
</g>
<g>
</g>
<g>
</g>
<g>
</g>
<g>
</g>
<g>
</g>
<g>
</g>
<g>
</g>
<g>
</g>
<g>
</g>
<g>
</g>
<g>
</g>
<g>
</g>
</svg>