<?xml version="1.0" encoding="UTF-8" standalone="no"?>
<!-- Created with Inkscape (http://www.inkscape.org/) -->

<svg
   version="1.1"
   id="svg327"
   xml:space="preserve"
   width="682.66669"
   height="682.66669"
   viewBox="0 0 682.66669 682.66669"
   xmlns="http://www.w3.org/2000/svg"
   xmlns:svg="http://www.w3.org/2000/svg"><defs
     id="defs331"><clipPath
       clipPathUnits="userSpaceOnUse"
       id="clipPath345"><path
         d="M 0,512 H 512 V 0 H 0 Z"
         id="path343" /></clipPath></defs><g
     id="g333"
     transform="matrix(1.3333333,0,0,-1.3333333,0,682.66667)"><g
       id="g335"
       transform="translate(50,115.9995)"><path
         d="M 0,0 V 64"
         style="fill:none;stroke-linecap:round;stroke-linejoin:round;stroke-miterlimit:10;stroke-dasharray:none;stroke-opacity:1"
         id="path337" /></g><g
       id="g339"><g
         id="g341"
         clip-path="url(#clipPath345)"><g
           id="g347"
           transform="translate(50,440.0004)"><path
             d="m 0,0 v 22 c 0,22.091 17.909,40 40,40 h 312 c 22.091,0 40,-17.909 40,-40 v -412 c 0,-22.092 -17.909,-40 -40,-40 H 40 c -22.091,0 -40,17.908 -40,40 v 21.999"
             style="fill:none;stroke-linecap:round;stroke-linejoin:round;stroke-miterlimit:10;stroke-dasharray:none;stroke-opacity:1"
             id="path349" /></g><g
           id="g351"
           transform="translate(76,396)"><path
             d="m 0,0 h -44 c -12.15,0 -22,9.85 -22,22 v 0 c 0,12.15 9.85,22 22,22 H 0 c 12.15,0 22,-9.85 22,-22 v 0 C 22,9.85 12.15,0 0,0 Z"
             style="fill:none;stroke-linecap:round;stroke-linejoin:round;stroke-miterlimit:10;stroke-dasharray:none;stroke-opacity:1"
             id="path353" /></g><g
           id="g355"
           transform="translate(76,288)"><path
             d="m 0,0 h -44 c -12.15,0 -22,9.85 -22,22 v 0 c 0,12.15 9.85,22 22,22 H 0 c 12.15,0 22,-9.85 22,-22 v 0 C 22,9.85 12.15,0 0,0 Z"
             style="fill:none;stroke-linecap:round;stroke-linejoin:round;stroke-miterlimit:10;stroke-dasharray:none;stroke-opacity:1"
             id="path357" /></g><g
           id="g359"
           transform="translate(76,180)"><path
             d="m 0,0 h -44 c -12.15,0 -22,9.85 -22,22 v 0 c 0,12.15 9.85,22 22,22 H 0 c 12.15,0 22,-9.85 22,-22 v 0 C 22,9.85 12.15,0 0,0 Z"
             style="fill:none;stroke-linecap:round;stroke-linejoin:round;stroke-miterlimit:10;stroke-dasharray:none;stroke-opacity:1"
             id="path361" /></g><g
           id="g363"
           transform="translate(76,72)"><path
             d="m 0,0 h -44 c -12.15,0 -22,9.85 -22,22 v 0 c 0,12.15 9.85,22 22,22 H 0 c 12.15,0 22,-9.85 22,-22 v 0 C 22,9.85 12.15,0 0,0 Z"
             style="fill:none;stroke-linecap:round;stroke-linejoin:round;stroke-miterlimit:10;stroke-dasharray:none;stroke-opacity:1"
             id="path365" /></g><g
           id="g367"
           transform="translate(394,502)"><path
             d="m 0,0 h 88 c 11.046,0 20,-8.954 20,-20 v -58.4 c 0,-11.046 -8.954,-20 -20,-20 H 48"
             style="fill:none;stroke-linecap:round;stroke-linejoin:round;stroke-miterlimit:10;stroke-dasharray:none;stroke-opacity:1"
             id="path369" /></g><g
           id="g371"
           transform="translate(442,403.6)"><path
             d="m 0,0 h 40 c 11.046,0 20,-8.954 20,-20 v -58.4 c 0,-11.046 -8.954,-20 -20,-20 H 0"
             style="fill:none;stroke-linecap:round;stroke-linejoin:round;stroke-miterlimit:10;stroke-dasharray:none;stroke-opacity:1"
             id="path373" /></g><g
           id="g375"
           transform="translate(442,305.2)"><path
             d="m 0,0 h 40 c 11.046,0 20,-8.954 20,-20 v -58.4 c 0,-11.046 -8.954,-20 -20,-20 H 0"
             style="fill:none;stroke-linecap:round;stroke-linejoin:round;stroke-miterlimit:10;stroke-dasharray:none;stroke-opacity:1"
             id="path377" /></g><g
           id="g379"
           transform="translate(442,206.8)"><path
             d="m 0,0 h 40 c 11.046,0 20,-8.954 20,-20 v -58.4 c 0,-11.046 -8.954,-20 -20,-20 H 0"
             style="fill:none;stroke-linecap:round;stroke-linejoin:round;stroke-miterlimit:10;stroke-dasharray:none;stroke-opacity:1"
             id="path381" /></g><g
           id="g383"
           transform="translate(442,108.4)"><path
             d="m 0,0 h 40 c 11.046,0 20,-8.954 20,-20 v -58.4 c 0,-11.046 -8.954,-20 -20,-20 h -88"
             style="fill:none;stroke-linecap:round;stroke-linejoin:round;stroke-miterlimit:10;stroke-dasharray:none;stroke-opacity:1"
             id="path385" /></g><g
           id="g387"
           transform="translate(301.1268,168)"><path
             d="m 0,0 h 38.873 v 16 c 0,39.764 -32.235,72 -72,72 h -24 c -39.764,0 -72,-32.236 -72,-72 V 0 H -90"
             style="fill:none;stroke-linecap:round;stroke-linejoin:round;stroke-miterlimit:10;stroke-dasharray:none;stroke-opacity:1"
             id="path389" /></g><g
           id="g391"
           transform="translate(256,344)"><path
             d="m 0,0 v 0 c -22.091,0 -40,-17.909 -40,-40 v -8 c 0,-22.091 17.909,-40 40,-40 v 0 c 22.091,0 40,17.909 40,40 v 8 C 40,-17.909 22.091,0 0,0 Z"
             style="fill:none;stroke-linecap:round;stroke-linejoin:round;stroke-miterlimit:10;stroke-dasharray:none;stroke-opacity:1"
             id="path393" /></g><g
           id="g395"
           transform="translate(256.127,168)"><path
             d="M 0,0 V 0"
             style="fill:none;stroke-linecap:round;stroke-linejoin:round;stroke-miterlimit:10;stroke-dasharray:none;stroke-opacity:1"
             id="path397" /></g><g
           id="g399"
           transform="translate(50,288)"><path
             d="M 0,0 V -64"
             style="fill:none;stroke-linecap:round;stroke-linejoin:round;stroke-miterlimit:10;stroke-dasharray:none;stroke-opacity:1"
             id="path401" /></g><g
           id="g403"
           transform="translate(50,332)"><path
             d="M 0,0 V 64"
             style="fill:none;stroke-linecap:round;stroke-linejoin:round;stroke-miterlimit:10;stroke-dasharray:none;stroke-opacity:1"
             id="path405" /></g><g
           id="g407"
           transform="translate(256,253)"><path
             d="M 0,0 V -23.167"
             style="fill:none;stroke-linecap:round;stroke-linejoin:round;stroke-miterlimit:10;stroke-dasharray:none;stroke-opacity:1"
             id="path409" /></g></g></g></g></svg>
