<svg id="_x31_7_Settings" height="512" viewBox="0 0 64 64" width="512" xmlns="http://www.w3.org/2000/svg"><path d="m60.057 24.234h-5.09c-.345-1.021-.757-2.018-1.233-2.984l3.6-3.6c1.539-1.54 1.539-4.036 0-5.576l-5.41-5.406c-1.561-1.489-4.015-1.489-5.576 0l-3.6 3.6c-.965-.478-1.961-.89-2.981-1.233v-5.095c-.003-2.175-1.766-3.938-3.941-3.94h-7.652c-2.176.001-3.94 1.764-3.943 3.94v5.093c-1.02.343-2.016.755-2.981 1.233l-3.595-3.6c-1.561-1.489-4.015-1.489-5.576 0l-5.413 5.41c-1.537 1.541-1.537 4.035 0 5.576l3.6 3.6c-.476.966-.888 1.963-1.233 2.984h-5.09c-2.175.001-3.939 1.763-3.943 3.938v7.652c.003 2.176 1.767 3.939 3.943 3.94h5.09c.345 1.021.757 2.018 1.233 2.984l-3.6 3.6c-1.539 1.54-1.539 4.036 0 5.576l5.408 5.408c1.561 1.489 4.015 1.489 5.576 0l3.6-3.6c.965.478 1.961.89 2.981 1.233v5.093c.003 2.176 1.767 3.939 3.943 3.94h7.652c2.176-.001 3.94-1.764 3.943-3.94v-5.093c1.02-.343 2.016-.755 2.981-1.233l3.595 3.6c1.561 1.489 4.015 1.489 5.576 0l5.413-5.408c1.537-1.541 1.537-4.035 0-5.576l-3.6-3.6c.476-.966.888-1.963 1.233-2.984h5.09c2.176-.001 3.94-1.764 3.943-3.94v-7.652c-.003-2.176-1.767-3.939-3.943-3.94zm1.16 11.592c-.002.639-.521 1.157-1.16 1.158h-6.111c-.619-.002-1.164.406-1.337 1-.437 1.513-1.041 2.973-1.8 4.353-.302.544-.207 1.223.234 1.663l4.321 4.32c.453.453.453 1.188 0 1.642l-5.413 5.407c-.454.446-1.182.446-1.636 0l-4.315-4.326c-.437-.441-1.114-.536-1.655-.233-1.378.759-2.836 1.363-4.348 1.8-.595.172-1.005.717-1.006 1.337v6.113c-.002.639-.521 1.156-1.16 1.157h-7.657c-.639-.001-1.158-.518-1.16-1.157v-6.114c-.001-.62-.411-1.165-1.006-1.337-1.512-.437-2.97-1.041-4.348-1.8-.205-.116-.436-.176-.671-.174-.369.001-.722.147-.984.407l-4.323 4.321c-.454.446-1.182.446-1.636 0l-5.407-5.406c-.453-.451-.455-1.184-.004-1.638l.004-.004 4.318-4.315c.437-.438.533-1.111.236-1.653-.759-1.38-1.363-2.84-1.8-4.353-.173-.594-.718-1.002-1.337-1h-6.113c-.639-.001-1.158-.519-1.16-1.158v-7.662c.002-.639.521-1.157 1.16-1.158h6.111c.619.002 1.164-.406 1.337-1 .437-1.513 1.041-2.973 1.8-4.353.297-.542.201-1.215-.236-1.653l-4.321-4.32c-.453-.453-.453-1.188 0-1.642l5.413-5.407c.454-.446 1.182-.446 1.636 0l4.32 4.321c.437.44 1.113.535 1.655.233 1.378-.759 2.836-1.363 4.348-1.8.595-.172 1.005-.717 1.006-1.337v-6.118c.002-.639.521-1.156 1.16-1.157h7.652c.639.001 1.158.518 1.16 1.157v6.114c.001.62.411 1.165 1.006 1.337 1.512.437 2.97 1.041 4.348 1.8.543.307 1.225.211 1.662-.234l4.323-4.321c.454-.446 1.182-.446 1.636 0l5.407 5.407c.453.451.455 1.184.004 1.638-.001.001-.003.003-.004.004l-4.321 4.32c-.437.438-.533 1.111-.236 1.653.759 1.38 1.363 2.84 1.8 4.353.173.594.718 1.002 1.337 1h6.111c.639.001 1.158.519 1.16 1.158zm-29.217-15.418c-6.402.004-11.588 5.198-11.584 11.6s5.198 11.588 11.6 11.584c6.399-.004 11.584-5.193 11.584-11.592-.008-6.402-5.198-11.588-11.6-11.592zm0 20.4c-4.866-.001-8.809-3.946-8.808-8.812s3.946-8.809 8.812-8.808 8.809 3.946 8.808 8.812c-.006 4.864-3.948 8.806-8.812 8.81z"/></svg>