<?xml version="1.0" encoding="UTF-8" standalone="no"?>
<!-- Created with Inkscape (http://www.inkscape.org/) -->

<svg
   version="1.1"
   id="svg159"
   xml:space="preserve"
   width="682.66669"
   height="682.66669"
   viewBox="0 0 682.66669 682.66669"
   xmlns="http://www.w3.org/2000/svg"
   xmlns:svg="http://www.w3.org/2000/svg"><defs
     id="defs163"><clipPath
       clipPathUnits="userSpaceOnUse"
       id="clipPath173"><path
         d="M 0,512 H 512 V 0 H 0 Z"
         id="path171" /></clipPath></defs><g
     id="g165"
     transform="matrix(1.3333333,0,0,-1.3333333,0,682.66667)"><g
       id="g167"><g
         id="g169"
         clip-path="url(#clipPath173)"><g
           id="g175"
           transform="translate(211,10)"><path
             d="M 0,0 H -173.436 L -201,144 H 291 L 263.436,0 H 90"
             style="fill:none;stroke:#000000;stroke-linecap:round;stroke-linejoin:round;stroke-miterlimit:10;stroke-dasharray:none;stroke-opacity:1"
             id="path177" /></g><g
           id="g179"
           transform="translate(142.7138,154)"><path
             d="m 0,0 c 23.141,46.282 23.16,100.753 0.051,147.051 v 0 c -16.518,33.093 -21.22,70.362 -14.106,105.833"
             style="fill:none;stroke:#000000;stroke-linecap:round;stroke-linejoin:round;stroke-miterlimit:10;stroke-dasharray:none;stroke-opacity:1"
             id="path181" /></g><g
           id="g183"
           transform="translate(159.4331,404.9716)"><path
             d="m 0,0 v 0 c -21.597,-5.787 -43.796,7.03 -49.583,28.627 v 0 c -5.241,19.559 4.775,39.982 23.449,47.812 L 22.964,97.028 29.683,44.214 C 32.238,24.126 19.559,5.241 0,0 Z"
             style="fill:none;stroke:#000000;stroke-linecap:round;stroke-linejoin:round;stroke-miterlimit:10;stroke-dasharray:none;stroke-opacity:1"
             id="path185" /></g><g
           id="g187"
           transform="translate(129.383,410.1768)"><path
             d="M 0,0 19.235,33.316"
             style="fill:none;stroke:#000000;stroke-linecap:round;stroke-linejoin:round;stroke-miterlimit:10;stroke-dasharray:none;stroke-opacity:1"
             id="path189" /></g><g
           id="g191"
           transform="translate(127.2696,348.48)"><path
             d="m 0,0 v 0 c 5.787,-21.597 -7.03,-43.796 -28.627,-49.583 v 0 c -19.559,-5.241 -39.982,4.775 -47.812,23.449 l -20.589,49.098 52.814,6.719 C -24.127,32.238 -5.241,19.559 0,0 Z"
             style="fill:none;stroke:#000000;stroke-linecap:round;stroke-linejoin:round;stroke-miterlimit:10;stroke-dasharray:none;stroke-opacity:1"
             id="path193" /></g><g
           id="g195"
           transform="translate(122.0644,318.4299)"><path
             d="M 0,0 -33.316,19.235"
             style="fill:none;stroke:#000000;stroke-linecap:round;stroke-linejoin:round;stroke-miterlimit:10;stroke-dasharray:none;stroke-opacity:1"
             id="path197" /></g><g
           id="g199"
           transform="translate(155.3771,194.4843)"><path
             d="m 0,0 v 0 c 0,-22.359 -18.125,-40.484 -40.484,-40.484 v 0 c -20.249,0 -37.384,14.96 -40.115,35.024 l -7.18,52.754 52.754,-7.18 C -14.961,37.384 0,20.249 0,0 Z"
             style="fill:none;stroke:#000000;stroke-linecap:round;stroke-linejoin:round;stroke-miterlimit:10;stroke-dasharray:none;stroke-opacity:1"
             id="path201" /></g><g
           id="g203"
           transform="translate(142.5717,166.8054)"><path
             d="M 0,0 -27.203,27.203"
             style="fill:none;stroke:#000000;stroke-linecap:round;stroke-linejoin:round;stroke-miterlimit:10;stroke-dasharray:none;stroke-opacity:1"
             id="path205" /></g><g
           id="g207"
           transform="translate(188.7057,256)"><path
             d="m 0,0 v 0 c -22.359,0 -40.484,18.125 -40.484,40.484 v 0 c 0,20.249 14.96,37.384 35.024,40.115 l 52.754,7.18 -7.18,-52.754 C 37.384,14.961 20.249,0 0,0 Z"
             style="fill:none;stroke:#000000;stroke-linecap:round;stroke-linejoin:round;stroke-miterlimit:10;stroke-dasharray:none;stroke-opacity:1"
             id="path209" /></g><g
           id="g211"
           transform="translate(161.0267,268.8054)"><path
             d="M 0,0 27.203,27.203"
             style="fill:none;stroke:#000000;stroke-linecap:round;stroke-linejoin:round;stroke-miterlimit:10;stroke-dasharray:none;stroke-opacity:1"
             id="path213" /></g><g
           id="g215"
           transform="translate(388.4726,154)"><path
             d="m 0,0 c 23.141,46.282 23.16,100.753 0.051,147.051 v 0 c -16.68,33.417 -21.311,71.093 -13.894,106.876"
             style="fill:none;stroke:#000000;stroke-linecap:round;stroke-linejoin:round;stroke-miterlimit:10;stroke-dasharray:none;stroke-opacity:1"
             id="path217" /></g><g
           id="g219"
           transform="translate(405.192,404.9716)"><path
             d="m 0,0 v 0 c -21.597,-5.787 -43.796,7.03 -49.583,28.627 v 0 c -5.241,19.559 4.775,39.982 23.449,47.812 L 22.964,97.028 29.683,44.214 C 32.238,24.126 19.559,5.241 0,0 Z"
             style="fill:none;stroke:#000000;stroke-linecap:round;stroke-linejoin:round;stroke-miterlimit:10;stroke-dasharray:none;stroke-opacity:1"
             id="path221" /></g><g
           id="g223"
           transform="translate(375.1418,410.1768)"><path
             d="M 0,0 19.235,33.316"
             style="fill:none;stroke:#000000;stroke-linecap:round;stroke-linejoin:round;stroke-miterlimit:10;stroke-dasharray:none;stroke-opacity:1"
             id="path225" /></g><g
           id="g227"
           transform="translate(373.0284,348.48)"><path
             d="m 0,0 v 0 c 5.787,-21.597 -7.03,-43.796 -28.627,-49.583 v 0 c -19.559,-5.241 -39.982,4.775 -47.812,23.449 l -20.589,49.098 52.814,6.719 C -24.126,32.238 -5.241,19.559 0,0 Z"
             style="fill:none;stroke:#000000;stroke-linecap:round;stroke-linejoin:round;stroke-miterlimit:10;stroke-dasharray:none;stroke-opacity:1"
             id="path229" /></g><g
           id="g231"
           transform="translate(367.8232,318.4299)"><path
             d="M 0,0 -33.316,19.235"
             style="fill:none;stroke:#000000;stroke-linecap:round;stroke-linejoin:round;stroke-miterlimit:10;stroke-dasharray:none;stroke-opacity:1"
             id="path233" /></g><g
           id="g235"
           transform="translate(401.1359,194.4843)"><path
             d="m 0,0 v 0 c 0,-22.359 -18.125,-40.484 -40.484,-40.484 v 0 c -20.249,0 -37.384,14.96 -40.115,35.024 l -7.18,52.754 52.754,-7.18 C -14.961,37.384 0,20.249 0,0 Z"
             style="fill:none;stroke:#000000;stroke-linecap:round;stroke-linejoin:round;stroke-miterlimit:10;stroke-dasharray:none;stroke-opacity:1"
             id="path237" /></g><g
           id="g239"
           transform="translate(388.3305,166.8054)"><path
             d="M 0,0 -27.203,27.203"
             style="fill:none;stroke:#000000;stroke-linecap:round;stroke-linejoin:round;stroke-miterlimit:10;stroke-dasharray:none;stroke-opacity:1"
             id="path241" /></g><g
           id="g243"
           transform="translate(434.4644,256)"><path
             d="m 0,0 v 0 c -22.359,0 -40.484,18.125 -40.484,40.484 v 0 c 0,20.249 14.96,37.384 35.024,40.115 l 52.754,7.18 -7.18,-52.754 C 37.384,14.961 20.249,0 0,0 Z"
             style="fill:none;stroke:#000000;stroke-linecap:round;stroke-linejoin:round;stroke-miterlimit:10;stroke-dasharray:none;stroke-opacity:1"
             id="path245" /></g><g
           id="g247"
           transform="translate(406.7855,268.8054)"><path
             d="M 0,0 27.203,27.203"
             style="fill:none;stroke:#000000;stroke-linecap:round;stroke-linejoin:round;stroke-miterlimit:10;stroke-dasharray:none;stroke-opacity:1"
             id="path249" /></g><g
           id="g251"
           transform="translate(256,10)"><path
             d="M 0,0 V 0"
             style="fill:none;stroke:#000000;stroke-linecap:round;stroke-linejoin:round;stroke-miterlimit:10;stroke-dasharray:none;stroke-opacity:1"
             id="path253" /></g></g></g></g></svg>
