<?xml version="1.0" encoding="UTF-8" standalone="no"?>
<!-- Created with Inkscape (http://www.inkscape.org/) -->

<svg
   version="1.1"
   id="svg153"
   xml:space="preserve"
   width="682.66669"
   height="682.66669"
   viewBox="0 0 682.66669 682.66669"
   xmlns="http://www.w3.org/2000/svg"
   xmlns:svg="http://www.w3.org/2000/svg"><defs
     id="defs157"><clipPath
       clipPathUnits="userSpaceOnUse"
       id="clipPath167"><path
         d="M 0,512 H 512 V 0 H 0 Z"
         id="path165" /></clipPath></defs><g
     id="g159"
     transform="matrix(1.3333333,0,0,-1.3333333,0,682.66667)"><g
       id="g161"><g
         id="g163"
         clip-path="url(#clipPath167)"><g
           id="g169"
           transform="translate(91.6909,413)"><path
             d="M 0,0 C 117.03,-90.18 188.458,-229.072 192.065,-378.968"
             style="fill:none;stroke:#000000;stroke-linecap:round;stroke-linejoin:round;stroke-miterlimit:22.926;stroke-dasharray:none;stroke-opacity:1"
             id="path171" /></g><g
           id="g173"
           transform="translate(425.4795,334.1401)"><path
             d="m 0,0 c -89.248,-64.923 -142.05,-168.627 -142.05,-278.992 0,-6.748 0.198,-13.494 0.594,-20.23"
             style="fill:none;stroke:#000000;stroke-linecap:round;stroke-linejoin:round;stroke-miterlimit:22.926;stroke-dasharray:none;stroke-opacity:1"
             id="path175" /></g><g
           id="g177"
           transform="translate(21.4971,471.5415)"><path
             d="M 0,0 C 11.716,11.716 35.459,6.967 53.033,-10.606 70.606,-28.18 75.355,-51.924 63.64,-63.64 51.924,-75.355 28.18,-70.606 10.606,-53.033 -6.967,-35.459 -11.716,-11.716 0,0 Z"
             style="fill:none;stroke:#000000;stroke-linecap:round;stroke-linejoin:round;stroke-miterlimit:22.926;stroke-dasharray:none;stroke-opacity:1"
             id="path179" /></g><g
           id="g181"
           transform="translate(181.8638,436.7524)"><path
             d="m 0,0 c 16.568,-0.15 29.817,-20.417 29.592,-45.27 -0.225,-24.851 -13.838,-44.876 -30.406,-44.727 -16.568,0.15 -29.816,20.418 -29.592,45.27 C -30.181,-19.875 -16.568,0.15 0,0 Z"
             style="fill:none;stroke:#000000;stroke-linecap:round;stroke-linejoin:round;stroke-miterlimit:22.926;stroke-dasharray:none;stroke-opacity:1"
             id="path183" /></g><g
           id="g185"
           transform="translate(97.3691,317.4702)"><path
             d="M 0,0 C 3.825,16.121 26.529,24.539 50.71,18.801 74.892,13.063 91.394,-4.656 87.569,-20.777 83.744,-36.898 61.041,-45.316 36.859,-39.579 12.678,-33.841 -3.825,-16.121 0,0 Z"
             style="fill:none;stroke:#000000;stroke-linecap:round;stroke-linejoin:round;stroke-miterlimit:22.926;stroke-dasharray:none;stroke-opacity:1"
             id="path187" /></g><g
           id="g189"
           transform="translate(165.1597,207.3315)"><path
             d="M 0,0 C 6.643,15.179 30.484,19.407 53.252,9.443 76.021,-0.521 89.093,-20.902 82.451,-36.081 75.809,-51.26 51.966,-55.488 29.198,-45.524 6.43,-35.561 -6.643,-15.179 0,0 Z"
             style="fill:none;stroke:#000000;stroke-linecap:round;stroke-linejoin:round;stroke-miterlimit:22.926;stroke-dasharray:none;stroke-opacity:1"
             id="path191" /></g><g
           id="g193"
           transform="translate(490.2969,400.5889)"><path
             d="m 0,0 c 11.855,-11.575 7.391,-35.374 -9.972,-53.156 -17.362,-17.782 -41.048,-22.815 -52.902,-11.24 -11.855,11.575 -7.391,35.374 9.972,53.156 C -35.54,6.543 -11.855,11.575 0,0 Z"
             style="fill:none;stroke:#000000;stroke-linecap:round;stroke-linejoin:round;stroke-miterlimit:22.926;stroke-dasharray:none;stroke-opacity:1"
             id="path195" /></g><g
           id="g197"
           transform="translate(410.4248,206.9609)"><path
             d="m 0,0 c 0.369,-16.564 -19.474,-30.441 -44.32,-30.995 -24.847,-0.554 -45.288,12.425 -45.658,28.99 -0.369,16.564 19.474,30.442 44.321,30.995 C -20.811,29.544 -0.369,16.565 0,0 Z"
             style="fill:none;stroke:#000000;stroke-linecap:round;stroke-linejoin:round;stroke-miterlimit:22.926;stroke-dasharray:none;stroke-opacity:1"
             id="path199" /></g><g
           id="g201"
           transform="translate(321.1318,342.605)"><path
             d="M 0,0 C 16.273,3.116 33.254,-14.146 37.927,-38.556 42.601,-62.965 33.197,-85.279 16.925,-88.394 0.651,-91.51 -16.329,-74.248 -21.003,-49.838 -25.676,-25.429 -16.272,-3.116 0,0 Z"
             style="fill:none;stroke:#000000;stroke-linecap:round;stroke-linejoin:round;stroke-miterlimit:22.926;stroke-dasharray:none;stroke-opacity:1"
             id="path203" /></g></g></g></g></svg>
